<svg xmlns="http://www.w3.org/2000/svg" width="76.286" height="27.76" viewBox="0 0 76.286 27.76">
  <g id="ESA_Logo" transform="translate(-1475.053 -51.053)">
    <path id="Path_51" data-name="Path 51" d="M1529.78,63.588c-1.2-.185-2.591-.278-3.331-1.11a1.3,1.3,0,0,1-.092-1.3c.463-1.018,1.666-1.2,2.868-1.2a2.614,2.614,0,0,1,2.313,1.388,4.6,4.6,0,0,1,.278,1.2h3.331a5.974,5.974,0,0,0-1.2-3.516,7.446,7.446,0,0,0-6.292-1.666,5.288,5.288,0,0,0-4.441,3.238,4.006,4.006,0,0,0,1.2,4.626c1.48,1.2,4.349,1.388,5.552,1.666,1.3.278,1.943.463,2.221,1.2A1.8,1.8,0,0,1,1532,69.51c-.833,1.11-2.591,1.2-3.886.833-1.2-.37-1.573-1.2-1.851-2.5h-3.516a4.624,4.624,0,0,0,.925,2.868,5.652,5.652,0,0,0,3.979,2.5,9.15,9.15,0,0,0,5.644-.648,5.679,5.679,0,0,0,1.758-1.573,4.808,4.808,0,0,0,.185-5.089c-1.2-1.666-3.423-2.036-5.459-2.313ZM1518.4,59.424a7.03,7.03,0,0,0-6.292-2.128,6.72,6.72,0,0,0-4.9,3.424,12.972,12.972,0,0,0-1.2,3.331,8.067,8.067,0,0,0,5.182,8.975,7.81,7.81,0,0,0,7.125-1.018,7.25,7.25,0,0,0,2.5-4.071h-3.886a2.67,2.67,0,0,1-1.2,1.758,3.619,3.619,0,0,1-4.164-.185c-1.2-.925-1.573-2.313-1.573-4.441a5.408,5.408,0,0,1,1.2-3.7,3.718,3.718,0,0,1,3.516-.74,3.2,3.2,0,0,1,2.128,3.146h-5.552v2.776h9.623a10.718,10.718,0,0,0-.278-2.961,18.021,18.021,0,0,0-2.221-4.164Zm32.57,9.715V64.328a11.9,11.9,0,0,0-.278-3.609c-.278-1.2-1.2-3.053-4.534-3.516h-1.943a9.53,9.53,0,0,0-3.238.555,4.955,4.955,0,0,0-2.961,4.719h3.609a2.244,2.244,0,0,1,1.3-2.221,4.688,4.688,0,0,1,1.2-.185,3.262,3.262,0,0,1,2.406.74,1.488,1.488,0,0,1,.37,1.48c-.185.925-1.2,1.2-2.776,1.388h0c-.555.093-1.2.093-1.758.185-1.851.185-4.534,1.2-5.182,3.794a4.638,4.638,0,0,0,1.573,4.256,6.371,6.371,0,0,0,3.794,1.2,7.958,7.958,0,0,0,1.48-.093h0a7.766,7.766,0,0,0,3.146-1.573,2.727,2.727,0,0,0,.463,1.2h3.7a11.1,11.1,0,0,1-.37-3.516Zm-3.886-.555a2.936,2.936,0,0,1-2.868,1.758h-.925a2.077,2.077,0,0,1-1.943-1.11,1.762,1.762,0,0,1,.093-1.666c.555-.925,1.388-1.11,2.776-1.3h0a2.956,2.956,0,0,0,1.3-.278,2.756,2.756,0,0,0,1.666-.74,19.484,19.484,0,0,1-.093,3.331Zm-54.776-17.118a13.88,13.88,0,1,0,7.125,22.484,9.16,9.16,0,0,1-5-.278,8.957,8.957,0,0,1-5.829-11.936,7.275,7.275,0,0,1,9.531-3.886,4.987,4.987,0,0,1,1.2.648c3.7,2.683,3.423,7.772,3.423,7.865A13.94,13.94,0,0,0,1492.307,51.467ZM1481.3,66.826a1.757,1.757,0,0,1-1.758-1.758,1.758,1.758,0,1,1,3.516,0h0A1.7,1.7,0,0,1,1481.3,66.826Zm11.659-3.146h5.644a2.931,2.931,0,0,0-.833-2.128,3.385,3.385,0,0,0-4.164-.74c-1.11.555-2.5,2.961-1.666,6.384,1.018,3.516,4.9,4.071,7.4,3.424a6.069,6.069,0,0,0,3.053-2.406,5.814,5.814,0,0,0,.278-1.758h-9.623l-.093-2.776Z" transform="translate(0 0)" fill="#fff"/>
  </g>
</svg>
