<svg xmlns="http://www.w3.org/2000/svg" width="35.179" height="102.242" viewBox="0 0 35.179 102.242">
  <g id="finger-guide" transform="translate(-322.367 -66.313)">
    <g id="Group_3343" data-name="Group 3343" transform="translate(0 7)">
      <g id="tap" transform="translate(329.847 67.596) rotate(1)">
        <path id="Path_10311" data-name="Path 10311" d="M24.323,11.619h-.051a2.8,2.8,0,0,0-1.887.717,2.943,2.943,0,0,0-2.733-1.994,2.835,2.835,0,0,0-2.025.871,2.9,2.9,0,0,0-2.589-1.655h-.054a2.658,2.658,0,0,0-1.667.555V3.082A3.018,3.018,0,0,0,10.385,0,3.012,3.012,0,0,0,7.461,3.08L7.447,17.031l-.79-.959a3.982,3.982,0,0,0-2.814-1.478A3.919,3.919,0,0,0,.908,15.633L.221,16.2a.611.611,0,0,0-.152.752l6.68,12.839a6.887,6.887,0,0,0,6.064,3.81H20.34V33.6a7.167,7.167,0,0,0,6.915-7.378c0-1.819-.005-3.176,0-4.275,0-2.941,0-4.026-.007-7.265a3,3,0,0,0-2.922-3.059Zm1.7,10.321c0,1.1,0,2.461,0,4.28A5.963,5.963,0,0,1,20.3,32.382H12.813A5.67,5.67,0,0,1,7.832,29.23L1.38,16.831l.318-.266.024-.021a2.711,2.711,0,0,1,2.035-.731,2.771,2.771,0,0,1,1.955,1.035l1.869,2.275a.61.61,0,0,0,1.082-.387L8.675,3.08a1.8,1.8,0,0,1,1.711-1.859A1.8,1.8,0,0,1,12.1,3.082v9.439c0,.033,0,.066,0,.1,0,.014,0,.029,0,.043V16.7a.611.611,0,0,0,1.221,0V12.542a1.712,1.712,0,0,1,1.667-1.762h.054a1.783,1.783,0,0,1,1.714,1.841v3.693a.611.611,0,0,0,1.221,0v-2.9a1.688,1.688,0,1,1,3.359,0V16.15a.611.611,0,0,0,1.221,0V14.67a1.774,1.774,0,0,1,1.718-1.829h.051a1.772,1.772,0,0,1,1.7,1.839c.007,3.237.006,4.321,0,7.26Zm0,0" transform="translate(0 0)" fill="#fff"/>
      </g>
      <path id="Path_10314" data-name="Path 10314" d="M5.39,9.033a.669.669,0,0,0-.669-.669H2.39l8.9-8.127V2.568a.669.669,0,0,0,1.338,0V-1.447A.628.628,0,0,0,12-2.1H8.1a.669.669,0,0,0-.669.669A.669.669,0,0,0,8.1-.765h2.356L1.338,7.474V5.118A.669.669,0,0,0,0,5.118v3.9A.713.713,0,0,0,.706,9.7H4.721A.669.669,0,0,0,5.39,9.033Z" transform="translate(323.699 64.204) rotate(-13)" fill="#fff"/>
    </g>
    <g id="Group_3342" data-name="Group 3342" transform="translate(60 67)">
      <g id="Group_3341" data-name="Group 3341">
        <g id="Group_3340" data-name="Group 3340" transform="matrix(0.766, -0.643, 0.643, 0.766, 260.835, 64.033)">
          <g id="Ellipse_19" data-name="Ellipse 19" transform="translate(2)" fill="none" stroke="#fff" stroke-width="1.2">
            <ellipse cx="8.483" cy="8.483" rx="8.483" ry="8.483" stroke="none"/>
            <ellipse cx="8.483" cy="8.483" rx="7.883" ry="7.883" fill="none"/>
          </g>
          <rect id="Rectangle_1454" data-name="Rectangle 1454" width="14.05" height="7.586" transform="translate(4.939 13.712) rotate(-7)"/>
          <rect id="Rectangle_1458" data-name="Rectangle 1458" width="4" height="4" transform="matrix(0.921, 0.391, -0.391, 0.921, 4.945, 11.928)"/>
        </g>
        <g id="tap-2" data-name="tap" transform="translate(270.29 67.951)">
          <path id="Path_10311-2" data-name="Path 10311" d="M24.607,46.967h-.051a2.8,2.8,0,0,0-1.887.717,2.943,2.943,0,0,0-2.733-1.994,2.835,2.835,0,0,0-2.025.871,2.9,2.9,0,0,0-2.589-1.655h-.054a2.658,2.658,0,0,0-1.667.555V38.429a3.018,3.018,0,0,0-2.932-3.082,3.012,3.012,0,0,0-2.925,3.08L7.732,52.379l-.79-.959a3.982,3.982,0,0,0-2.814-1.478A3.919,3.919,0,0,0,1.192,50.98l-.687.569a.611.611,0,0,0-.152.752l6.68,12.839a6.887,6.887,0,0,0,6.064,3.81h7.528v-.007a7.168,7.168,0,0,0,6.915-7.378c0-1.819-.005-3.176,0-4.275,0-2.941,0-4.026-.007-7.265a3,3,0,0,0-2.922-3.059Zm1.7,10.321c0,1.1,0,2.461,0,4.28a5.963,5.963,0,0,1-5.712,6.162H13.1a5.67,5.67,0,0,1-4.981-3.153l-6.452-12.4.318-.266.024-.021a2.711,2.711,0,0,1,2.035-.731A2.771,2.771,0,0,1,6,52.2L7.866,54.47a.61.61,0,0,0,1.082-.387l.011-15.656a1.8,1.8,0,0,1,1.711-1.859,1.8,1.8,0,0,1,1.71,1.861v9.439c0,.033,0,.066,0,.1,0,.014,0,.029,0,.043v4.036a.611.611,0,0,0,1.221,0V47.889a1.712,1.712,0,0,1,1.667-1.762h.054a1.783,1.783,0,0,1,1.714,1.841v3.693a.611.611,0,0,0,1.221,0v-2.9a1.688,1.688,0,1,1,3.359,0V51.5a.611.611,0,0,0,1.221,0v-1.48a1.774,1.774,0,0,1,1.718-1.829h.051a1.772,1.772,0,0,1,1.7,1.839c.007,3.237.006,4.321,0,7.26Zm0,0" transform="translate(-0.284 -35.347)" fill="#fff"/>
        </g>
      </g>
      <path id="Path_10315" data-name="Path 10315" d="M8.178,2.246V4.483a.637.637,0,1,0,1.274,0V.63A.6.6,0,0,0,8.85,0H5.135a.642.642,0,0,0,0,1.284H7.377Z" transform="translate(286.522 54.709) rotate(115)" fill="#fff"/>
    </g>
  </g>
</svg>
