<svg xmlns="http://www.w3.org/2000/svg" width="60.47" height="97" viewBox="0 0 60.47 97">
  <g id="mouse-guide" transform="translate(-1249 -58)">
    <g id="computer-mouse" transform="translate(1274.176 99.562)">
      <g id="Group_3328" data-name="Group 3328" transform="translate(0)">
        <path id="Path_10308" data-name="Path 10308" d="M105.4,0A17.416,17.416,0,0,0,88,17.4V37.541a17.4,17.4,0,1,0,34.794,0V17.4A17.416,17.416,0,0,0,105.4,0Zm1.831,9.156V14.65a1.831,1.831,0,0,1-3.663,0V9.156a1.831,1.831,0,0,1,3.663,0ZM89.831,17.4a15.572,15.572,0,0,1,14.65-15.519V5.624a3.663,3.663,0,0,0-2.747,3.532V14.65a3.663,3.663,0,0,0,2.747,3.532v3.793H89.831Zm31.131,20.144a15.566,15.566,0,1,1-31.131,0V23.806h31.131Zm0-15.566h-14.65V18.182a3.663,3.663,0,0,0,2.747-3.532V9.156a3.663,3.663,0,0,0-2.747-3.532V1.878A15.572,15.572,0,0,1,120.963,17.4Z" transform="translate(-88)" fill="#fff" stroke="#000" stroke-width="1"/>
      </g>
    </g>
    <line id="Line_33" data-name="Line 33" x1="5.3" y1="5.3" transform="translate(1266.888 93.114)" fill="none" stroke="#fff" stroke-linecap="round" stroke-width="1"/>
    <line id="Line_34" data-name="Line 34" y1="6.625" transform="translate(1292.065 83.839)" fill="none" stroke="#fff" stroke-linecap="round" stroke-width="1"/>
    <g id="Group_3329" data-name="Group 3329" transform="translate(1249 75.226)">
      <g id="Ellipse_19" data-name="Ellipse 19" fill="none" stroke="#fff" stroke-width="1">
        <circle cx="6.625" cy="6.625" r="6.625" stroke="none"/>
        <circle cx="6.625" cy="6.625" r="6.125" fill="none"/>
      </g>
      <rect id="Rectangle_1454" data-name="Rectangle 1454" width="5.3" height="5.3" transform="matrix(0.809, -0.588, 0.588, 0.809, 6.899, 10.014)"/>
      <path id="Path_10309" data-name="Path 10309" d="M2349.283,4855.826l4.153,3.619,3.995-3.619" transform="translate(-2340.958 -4850.757)" fill="none" stroke="#fff" stroke-width="1"/>
    </g>
    <g id="Group_3331" data-name="Group 3331" transform="translate(1282.127 58)">
      <g id="Ellipse_20" data-name="Ellipse 20" fill="none" stroke="#fff" stroke-width="1">
        <circle cx="7.288" cy="7.288" r="7.288" stroke="none"/>
        <circle cx="7.288" cy="7.288" r="6.788" fill="none"/>
      </g>
      <path id="Path_10310" data-name="Path 10310" d="M.939.4l4.843,4.14" transform="translate(11.568 11.392)" fill="none" stroke="#fff" stroke-width="1"/>
      <g id="Group_3330" data-name="Group 3330" transform="translate(4.638 4.638)">
        <line id="Line_35" data-name="Line 35" y2="5.3" transform="translate(2.65)" fill="none" stroke="#fff" stroke-linecap="round" stroke-width="1"/>
        <line id="Line_36" data-name="Line 36" x1="5.3" transform="translate(0 2.65)" fill="none" stroke="#fff" stroke-linecap="round" stroke-width="1"/>
      </g>
    </g>
  </g>
</svg>
